<?xml version="1.0" encoding="UTF-8" standalone="no"?>
<!-- Created with Inkscape (http://www.inkscape.org/) -->

<svg
   xmlns:dc="http://purl.org/dc/elements/1.1/"
   xmlns:cc="http://creativecommons.org/ns#"
   xmlns:rdf="http://www.w3.org/1999/02/22-rdf-syntax-ns#"
   xmlns:svg="http://www.w3.org/2000/svg"
   xmlns="http://www.w3.org/2000/svg"
   xmlns:sodipodi="http://sodipodi.sourceforge.net/DTD/sodipodi-0.dtd"
   xmlns:inkscape="http://www.inkscape.org/namespaces/inkscape"
   width="709"
   height="709"
   viewBox="0 0 187.58958 187.58959"
   version="1.1"
   id="svg8"
   inkscape:version="0.92.3 (2405546, 2018-03-11)"
   sodipodi:docname="fondo.svg">
  <defs
     id="defs2" />
  <sodipodi:namedview
     id="base"
     pagecolor="#ffffff"
     bordercolor="#666666"
     borderopacity="1.0"
     inkscape:pageopacity="0.0"
     inkscape:pageshadow="2"
     inkscape:zoom="0.49497475"
     inkscape:cx="451.58939"
     inkscape:cy="345.89304"
     inkscape:document-units="mm"
     inkscape:current-layer="layer1"
     showgrid="false"
     units="px"
     inkscape:snap-global="false"
     inkscape:window-width="1366"
     inkscape:window-height="703"
     inkscape:window-x="0"
     inkscape:window-y="40"
     inkscape:window-maximized="1" />
  <metadata
     id="metadata5">
    <rdf:RDF>
      <cc:Work
         rdf:about="">
        <dc:format>image/svg+xml</dc:format>
        <dc:type
           rdf:resource="http://purl.org/dc/dcmitype/StillImage" />
        <dc:title></dc:title>
      </cc:Work>
    </rdf:RDF>
  </metadata>
  <g
     inkscape:label="Layer 1"
     inkscape:groupmode="layer"
     id="layer1"
     transform="translate(0,-109.4104)">
    <g
       id="g832"
       transform="matrix(0.14783008,0,0,0.14783008,114.15068,116.46205)"
       style="opacity:0.065;stroke:#0000ff;stroke-opacity:0.01923077">
      <path
         id="path830"
         d="M 435.646,159.965 C 365.364,89.949 367.571,91.256 362.678,87.757 374.007,60.101 366.63,32.9 340.658,6.803 328.015,-5.902 306.332,0.051 301.82,17.501 c -0.891,3.445 -2.127,6.939 -3.674,10.384 -1.696,3.779 -0.008,8.217 3.771,9.914 3.779,1.697 8.217,0.008 9.914,-3.77 1.892,-4.214 3.41,-8.512 4.512,-12.773 1.596,-6.173 9.226,-8.351 13.684,-3.872 21.32,21.423 27.552,42.487 18.956,64.203 -23.275,-5.296 -44.573,12.112 -45.284,34.95 -19.611,0.633 -35.319,16.388 -35.95,35.95 -17.175,0.534 -31.435,12.748 -35.014,28.929 -19.55,-7.676 -24.606,-33.463 -9.733,-48.337 63.789,-63.892 62.4,-62.161 67.757,-68.073 2.781,-3.07 2.548,-7.813 -0.522,-10.594 -3.071,-2.783 -7.813,-2.547 -10.594,0.521 -4.91,5.419 -3.173,3.369 -67.248,67.539 -24.013,24.013 -13.32,66.106 20.258,74.626 1.468,7.04 4.964,13.777 10.477,19.29 l 40.032,40.032 -48.457,48.457 c -23.881,23.879 -50.575,12.338 -78.12,39.882 -5.355,5.355 -76.43,76.431 -80.243,80.244 -15.545,15.545 -15.545,40.84 0,56.385 l 18.94,18.941 c 15.544,15.545 40.839,15.546 56.385,0 l 13.753,-13.753 c 2.929,-2.929 2.929,-7.678 0,-10.606 -2.929,-2.929 -7.678,-2.929 -10.607,0 l -13.752,13.752 c -9.697,9.696 -25.475,9.696 -35.172,0 l -18.94,-18.94 c -9.697,-9.697 -9.697,-25.475 0,-35.172 l 0.315,-0.315 10.387,10.388 c 11.348,11.347 29.714,11.349 41.062,0 l 67.259,-67.259 c 5.484,-5.483 8.504,-12.775 8.504,-20.531 0,-13.325 -8.958,-20.879 -9.184,-21.21 3.87,-1.525 22.782,-3.961 40.019,-21.198 l 162.32,-162.32 17.408,17.408 c 9.697,9.697 9.697,25.475 0,35.172 L 180.532,450.25 c -2.929,2.929 -2.929,7.678 0,10.607 2.929,2.929 7.678,2.929 10.606,0 L 435.646,216.35 c 15.545,-15.546 15.545,-40.84 0,-56.385 z m -240.28,207.851 -67.259,67.259 c -5.485,5.485 -14.363,5.486 -19.849,0 L 97.87,424.688 167.192,355.366 c 6.141,-6.14 13.588,-10.872 21.725,-13.847 l 6.449,6.45 c 5.485,5.483 5.486,14.362 0,19.847 z m 173.31,-196.91 -21.41,-21.41 c -2.929,-2.929 -7.678,-2.929 -10.606,0 -2.929,2.929 -2.929,7.678 0,10.607 l 21.41,21.41 -25.346,25.346 -21.41,-21.41 c -2.929,-2.929 -7.678,-2.929 -10.606,0 -2.929,2.929 -2.929,7.678 0,10.606 l 21.41,21.41 -28.349,28.349 -40.032,-40.032 c -8.571,-8.571 -9.06,-22.556 -1.09,-31.174 4.585,-4.957 11.073,-7.532 17.795,-7.087 7.015,0.467 12.819,-5.319 12.34,-12.307 -0.922,-13.425 10.218,-24.565 23.643,-23.643 7.022,0.474 12.777,-5.356 12.307,-12.34 -0.452,-6.725 2.131,-13.211 7.087,-17.794 8.618,-7.971 22.603,-7.482 31.174,1.089 l 40.032,40.032 z"
         inkscape:connector-curvature="0"
         style="stroke:#0000ff;stroke-opacity:0.01923077" />
    </g>
    <g
       id="Outlines"
       transform="matrix(0.92204663,0,0,0.92204663,6.9665105,231.79858)"
       style="opacity:0.065;stroke:#0000ff;stroke-opacity:0.01923077">
      <g
         id="g857"
         style="stroke:#0000ff;stroke-opacity:0.01923077">
        <path
           id="path843"
           d="M 55.093,24.949 53,20.764 A 4.973,4.973 0 0 0 48.528,18 H 46 V 11 A 1,1 0 0 0 45,10 H 42 V 8 h 3 A 1,1 0 0 0 46,7 V 3 A 1,1 0 0 0 45,2 H 33 a 1,1 0 0 0 -1,1 v 1 h -7 a 1,1 0 0 0 -0.707,0.293 l -3,3 a 1,1 0 1 0 1.414,1.414 L 25.414,6 H 32 v 1 a 1,1 0 0 0 1,1 h 3 v 2 h -3 a 1,1 0 0 0 -1,1 v 4 a 1,1 0 0 0 2,0 v -3 h 10 v 6 H 29.472 A 4.973,4.973 0 0 0 25,20.764 l -2.093,4.185 a 6.981,6.981 0 0 0 -0.691,3.948 l 3.375,28.687 A 5,5 0 0 0 30.557,62 h 16.886 a 5,5 0 0 0 4.966,-4.416 L 53.875,45.117 A 1,1 0 1 0 51.889,44.883 L 51.052,52 h -24.1 L 24.83,34 h 25.464 a 1,1 0 0 0 0,-2 H 24.6 l -0.4,-3.336 a 4.979,4.979 0 0 1 0.493,-2.82 l 2.093,-4.186 A 2.983,2.983 0 0 1 29.472,20 h 19.056 a 2.983,2.983 0 0 1 2.683,1.658 l 0.753,1.506 a 6.4,6.4 0 0 0 -4.519,1 4.4,4.4 0 0 1 -4.89,0 6.4,6.4 0 0 0 -7.11,0 4.4,4.4 0 0 1 -4.891,0 6.244,6.244 0 0 0 -1.183,-0.607 1,1 0 1 0 -0.742,1.857 4.377,4.377 0 0 1 0.816,0.414 6.4,6.4 0 0 0 7.11,0 4.4,4.4 0 0 1 4.89,0 6.391,6.391 0 0 0 7.11,0 4.387,4.387 0 0 1 4.685,-0.116 l 0.064,0.128 a 4.979,4.979 0 0 1 0.493,2.82 L 52.36,40.883 a 1,1 0 1 0 1.986,0.234 L 55.784,28.9 A 6.981,6.981 0 0 0 55.093,24.949 Z M 34,4 H 44 V 6 H 34 Z m 4,6 V 8 h 2 v 2 z m 12.817,44 -0.4,3.351 A 3,3 0 0 1 47.443,60 H 30.557 A 3,3 0 0 1 27.578,57.351 L 27.183,54 Z"
           inkscape:connector-curvature="0"
           style="stroke:#0000ff;stroke-opacity:0.01923077" />
        <path
           id="path845"
           d="m 34,44 a 5,5 0 0 0 10,0 c 0,-2.4 -1.947,-7 -5,-7 -3.053,0 -5,4.6 -5,7 z m 8,0 a 3,3 0 0 1 -6,0 c 0,-1.974 1.609,-5 3,-5 1.391,0 3,3.026 3,5 z"
           inkscape:connector-curvature="0"
           style="stroke:#0000ff;stroke-opacity:0.01923077" />
        <path
           id="path847"
           d="m 18,11 a 3,3 0 1 0 3,3 3,3 0 0 0 -3,-3 z m 0,4 a 1,1 0 1 1 1,-1 1,1 0 0 1 -1,1 z"
           inkscape:connector-curvature="0"
           style="stroke:#0000ff;stroke-opacity:0.01923077" />
        <path
           id="path849"
           d="M 7,27 A 5,5 0 1 0 2,22 5.006,5.006 0 0 0 7,27 Z M 7,19 A 3,3 0 1 1 4,22 3,3 0 0 1 7,19 Z"
           inkscape:connector-curvature="0"
           style="stroke:#0000ff;stroke-opacity:0.01923077" />
        <path
           id="path851"
           d="m 16,33 a 1,1 0 0 0 -1,1 2,2 0 1 1 -2,-2 1,1 0 0 0 0,-2 4,4 0 1 0 4,4 1,1 0 0 0 -1,-1 z"
           inkscape:connector-curvature="0"
           style="stroke:#0000ff;stroke-opacity:0.01923077" />
        <path
           id="path853"
           d="m 7,40 a 5,5 0 1 0 5,5 5.006,5.006 0 0 0 -5,-5 z m 0,8 a 3,3 0 1 1 3,-3 3,3 0 0 1 -3,3 z"
           inkscape:connector-curvature="0"
           style="stroke:#0000ff;stroke-opacity:0.01923077" />
        <path
           id="path855"
           d="M 9,15 A 4,4 0 1 0 5,11 4,4 0 0 0 9,15 Z M 9,9 A 2,2 0 1 1 7,11 2,2 0 0 1 9,9 Z"
           inkscape:connector-curvature="0"
           style="stroke:#0000ff;stroke-opacity:0.01923077" />
      </g>
    </g>
    <g
       id="g885"
       transform="matrix(0.12695749,0,0,0.12695749,7.4340468,115.27335)"
       style="opacity:0.065;stroke:#0000ff;stroke-opacity:0.01923077">
      <path
         id="path877"
         d="m 355.13,389.835 c -1.602,0.335 -3.183,0.739 -4.739,1.212 -9.654,-12.82 -23.429,-21.517 -38.672,-24.894 l 10.338,-19.996 21.031,-21.015 c 16.088,-16.097 16.088,-42.289 0,-58.386 l -22.469,-22.481 114.297,-114.36 c 0.098,-0.091 0.201,-0.173 0.297,-0.268 0.097,-0.097 0.181,-0.203 0.274,-0.303 l 44.428,-44.453 c 10e-4,-0.001 0.002,-0.002 0.003,-0.002 10e-4,-10e-4 10e-4,-0.002 0.002,-0.003 L 500.762,64.032 C 515.388,49.438 515.396,25.637 500.772,10.967 493.703,3.894 484.283,0 474.241,0 c -0.008,0 -0.018,0 -0.026,0 -10.037,0.007 -19.446,3.905 -26.485,10.967 l -20.847,20.858 c 0,0 0,0 -10e-4,0 l -0.001,0.001 -44.438,44.462 c -0.097,0.09 -0.2,0.172 -0.295,0.266 -0.097,0.097 -0.18,0.201 -0.272,0.301 l -25.2,25.214 c -3.904,3.907 -3.903,10.238 0.003,14.143 3.906,3.903 10.238,3.902 14.142,-0.004 l 18.41,-18.42 24.759,24.772 -107.51,107.569 -24.759,-24.772 25.642,-25.656 c 3.904,-3.907 3.902,-10.238 -0.004,-14.143 -3.908,-3.904 -10.239,-3.903 -14.143,0.004 l -25.634,25.648 -22.461,-22.473 c -7.767,-7.771 -18.132,-12.051 -29.185,-12.051 -11.053,0 -21.417,4.28 -29.189,12.056 l -21,21.039 -40.495,20.985 c -0.043,0.022 -0.086,0.044 -0.128,0.066 l -39.005,20.213 c -0.172,0.083 -0.341,0.17 -0.509,0.263 l -62.935,32.615 c -13.512,6.995 -20.835,15.262 -22.39,25.275 -1.504,9.689 2.899,19.77 13.085,29.961 l 27.697,27.721 c 0.103,0.112 0.213,0.214 0.32,0.321 l 61.649,61.702 61.485,61.499 c 0.153,0.163 0.311,0.322 0.476,0.476 l 27.731,27.738 c 8.891,8.895 17.696,13.383 26.231,13.383 1.246,0 2.486,-0.096 3.719,-0.287 10.013,-1.554 18.279,-8.882 25.27,-22.402 l 4.542,-8.78 c 2.525,2.283 5.236,4.395 8.132,6.303 11.001,7.249 23.598,11 36.463,11 4.51,0 9.056,-0.462 13.574,-1.395 8.535,-1.756 16.604,-5.149 23.734,-9.941 12.17,8.815 27.511,12.208 42.532,9.118 14.125,-2.911 26.269,-11.149 34.195,-23.198 7.923,-12.044 10.685,-26.453 7.775,-40.57 -5.992,-29.14 -34.579,-47.991 -63.765,-42.012 z M 474.228,20 h 0.012 c 4.697,0 9.096,1.813 12.377,5.096 6.833,6.855 6.842,17.971 0.009,24.789 L 472.848,63.67 448.089,38.898 461.884,25.095 c 3.273,-3.282 7.656,-5.092 12.344,-5.095 z m -70.857,63.641 30.58,-30.597 24.759,24.772 -30.581,30.597 z m -153.96,301.27 -142.194,-142.271 20.714,-10.734 139.61,139.686 c -6.847,3.415 -12.952,7.947 -18.13,13.319 z M 169.83,210.191 301.648,342.082 289.79,365.02 c -0.162,0.018 -0.324,0.036 -0.486,0.055 L 146.559,222.251 Z m 31.069,-27.315 c 3.989,-3.991 9.33,-6.189 15.039,-6.189 5.708,0 11.049,2.198 15.039,6.189 l 97.965,98.018 c 8.297,8.301 8.297,21.809 0.005,30.105 L 313.894,326.041 185.863,197.94 Z m 29.287,297.247 c -3.639,7.038 -7.493,11.349 -10.572,11.826 -2.903,0.455 -7.543,-2.273 -12.739,-7.472 l -22.81,-22.816 21.841,-42.16 c 2.541,-4.904 0.625,-10.939 -4.279,-13.479 -4.905,-2.54 -10.939,-0.625 -13.479,4.279 l -18.919,36.52 -44.96,-44.971 31.653,-31.763 c 3.898,-3.912 3.887,-10.244 -0.025,-14.142 -3.912,-3.898 -10.244,-3.888 -14.142,0.025 l -31.624,31.734 -44.984,-45.023 36.509,-18.935 c 4.903,-2.542 6.816,-8.578 4.273,-13.481 -2.542,-4.902 -8.58,-6.817 -13.481,-4.273 L 50.32,327.841 27.521,305.022 c -5.198,-5.2 -7.92,-9.85 -7.469,-12.756 0.479,-3.083 4.787,-6.94 11.825,-10.583 l 56.713,-29.39 149.117,149.199 c -6.447,12.897 -8.801,27.957 -5.682,43.152 1.368,6.629 3.691,12.901 6.856,18.672 z m 164.23,-18.697 c -4.989,7.584 -12.633,12.77 -21.52,14.601 -11.322,2.333 -22.939,-1.193 -31.073,-9.423 -3.738,-3.782 -9.783,-3.978 -13.758,-0.442 -6.008,5.343 -13.42,9.04 -21.441,10.69 -12.176,2.515 -24.604,0.129 -34.995,-6.717 -10.393,-6.848 -17.502,-17.336 -20.017,-29.521 -5.171,-25.192 11.087,-49.892 36.242,-55.061 0.001,0 0.002,0 0.004,-10e-4 3.166,-0.652 6.334,-0.968 9.469,-0.968 16.535,0 32.059,8.809 40.467,23.654 2.617,4.62 8.389,6.389 13.145,4.03 2.597,-1.288 5.384,-2.249 8.245,-2.847 18.349,-3.756 36.35,8.111 40.127,26.464 1.832,8.887 0.094,17.959 -4.895,25.541 z"
         inkscape:connector-curvature="0"
         style="stroke:#0000ff;stroke-opacity:0.01923077" />
      <path
         id="path879"
         d="m 477.24,421.937 c -19.183,0 -34.789,15.6 -34.789,34.774 0,19.19 15.606,34.802 34.789,34.802 19.167,0 34.76,-15.612 34.76,-34.802 0,-19.174 -15.593,-34.774 -34.76,-34.774 z m 0,49.576 c -8.155,0 -14.789,-6.64 -14.789,-14.802 0,-8.146 6.634,-14.774 14.789,-14.774 8.139,0 14.76,6.627 14.76,14.774 0,8.162 -6.622,14.802 -14.76,14.802 z"
         inkscape:connector-curvature="0"
         style="stroke:#0000ff;stroke-opacity:0.01923077" />
      <path
         id="path881"
         d="m 474.774,315.579 c 0,-24.066 -19.571,-43.646 -43.628,-43.646 -24.041,0 -43.599,19.58 -43.599,43.646 0,24.066 19.559,43.646 43.599,43.646 24.057,0 43.628,-19.58 43.628,-43.646 z m -43.628,23.646 c -13.013,0 -23.599,-10.607 -23.599,-23.646 0,-13.039 10.586,-23.646 23.599,-23.646 13.028,0 23.628,10.607 23.628,23.646 0,13.039 -10.599,23.646 -23.628,23.646 z"
         inkscape:connector-curvature="0"
         style="stroke:#0000ff;stroke-opacity:0.01923077" />
      <path
         id="path883"
         d="m 331.999,150.893 c 2.567,0 5.136,-0.98 7.092,-2.936 3.905,-3.905 3.905,-10.237 0,-14.143 -3.905,-3.905 -10.237,-3.905 -14.143,0 l -0.028,0.028 c -3.905,3.905 -3.891,10.223 0.014,14.128 1.95,1.95 4.506,2.923 7.065,2.923 z"
         inkscape:connector-curvature="0"
         style="stroke:#0000ff;stroke-opacity:0.01923077" />
    </g>
    <g
       id="g917"
       transform="matrix(0.11262721,0,0,0.11262721,123.31695,234.76661)"
       style="opacity:0.065;stroke:#0000ff;stroke-opacity:0.01923077">
      <path
         id="path899"
         d="m 363.92,329.846 c -6.416,-5.228 -14.797,-7.605 -23.006,-6.524 l -74.899,9.875 c -2.101,0.275 -3.172,-1.093 -3.537,-1.695 -0.365,-0.602 -1.085,-2.188 0.124,-3.92 l 10.33,-14.796 c 2.371,-3.396 1.54,-8.072 -1.856,-10.443 -3.396,-2.372 -8.072,-1.54 -10.442,1.856 l -10.33,14.797 c -4.28,6.131 -4.526,13.909 -0.643,20.298 3.885,6.389 10.899,9.75 18.315,8.774 l 74.899,-9.875 c 4.188,-0.551 8.296,0.614 11.569,3.281 3.273,2.667 5.245,6.457 5.55,10.668 0.483,6.68 -3.384,12.803 -9.623,15.235 l -141.463,55.146 c -18.81,7.333 -39.367,10.133 -59.454,8.094 L 138.1,429.465 c -1.626,-0.163 -3.273,0.209 -4.673,1.066 l -83.892,51.367 c -3.533,2.163 -4.644,6.78 -2.48,10.313 1.415,2.311 3.879,3.584 6.403,3.584 1.336,0 2.688,-0.356 3.909,-1.105 l 81.735,-50.046 8.837,0.897 c 22.439,2.275 45.404,-0.851 66.415,-9.042 l 67.177,-26.187 24.683,80.189 c 0.992,3.224 3.96,5.295 7.165,5.295 0.731,0 1.475,-0.108 2.209,-0.334 3.959,-1.218 6.181,-5.416 4.962,-9.375 l -25.006,-81.238 60.274,-23.496 c 12.406,-4.837 20.097,-17.011 19.136,-30.293 -0.596,-8.254 -4.619,-15.987 -11.034,-21.214 z"
         inkscape:connector-curvature="0"
         style="stroke:#0000ff;stroke-opacity:0.01923077" />
      <path
         id="path901"
         d="m 69.41,254.47 11.354,-11.219 c 2.946,-2.912 2.975,-7.66 0.063,-10.606 -2.913,-2.947 -7.659,-2.975 -10.606,-0.063 l -11.336,11.202 c -10.516,10.323 -18.584,23.153 -23.333,37.102 l -5.056,14.85 -27.543,21.006 c -3.294,2.512 -3.928,7.218 -1.416,10.512 1.477,1.935 3.71,2.952 5.97,2.952 1.586,0 3.185,-0.501 4.542,-1.537 l 29.359,-22.392 c 1.185,-0.903 2.072,-2.137 2.552,-3.546 l 5.791,-17.012 c 3.998,-11.742 10.79,-22.542 19.659,-31.249 z"
         inkscape:connector-curvature="0"
         style="stroke:#0000ff;stroke-opacity:0.01923077" />
      <path
         id="path903"
         d="m 462.404,422.234 c -1.265,-3.945 -5.488,-6.119 -9.432,-4.853 -3.944,1.264 -6.117,5.487 -4.854,9.431 l 20.439,63.772 c 1.021,3.184 3.968,5.213 7.141,5.213 0.759,0 1.53,-0.116 2.291,-0.36 3.944,-1.264 6.117,-5.487 4.854,-9.431 z"
         inkscape:connector-curvature="0"
         style="stroke:#0000ff;stroke-opacity:0.01923077" />
      <path
         id="path905"
         d="m 423.8,271.959 c 11.455,-14.378 20.05,-30.563 25.546,-48.105 l 20.318,-64.857 c 1.238,-3.953 -0.962,-8.161 -4.915,-9.399 -3.949,-1.234 -8.161,0.962 -9.399,4.915 l -20.318,64.857 c -4.939,15.77 -12.666,30.318 -22.964,43.243 l -4.782,6.003 c -3.044,3.819 -4.667,8.635 -4.572,13.56 v 0.001 c 0.041,2.1 2.505,10.784 2.505,10.784 1.019,3.177 3.961,5.212 7.139,5.212 0.708,0 1.428,-0.101 2.141,-0.313 l 0.356,-0.101 c 1.934,-0.552 3.564,-1.856 4.527,-3.622 0.963,-1.766 1.176,-3.844 0.592,-5.768 l -2.209,-7.282 c 0.124,-1.148 0.546,-2.237 1.253,-3.124 z"
         inkscape:connector-curvature="0"
         style="stroke:#0000ff;stroke-opacity:0.01923077" />
      <path
         id="path907"
         d="m 14.708,167.092 c 0,13.261 10.789,24.05 24.05,24.05 13.262,0 24.051,-10.789 24.051,-24.05 0,-13.262 -10.789,-24.051 -24.051,-24.051 -13.261,0.001 -24.05,10.79 -24.05,24.051 z m 33.1,0 c 0,4.99 -4.061,9.05 -9.051,9.05 -4.99,0 -9.05,-4.06 -9.05,-9.05 0,-4.991 4.06,-9.051 9.05,-9.051 4.99,0 9.051,4.061 9.051,9.051 z"
         inkscape:connector-curvature="0"
         style="stroke:#0000ff;stroke-opacity:0.01923077" />
      <path
         id="path909"
         d="m 484.139,211.785 c -15.355,0 -27.849,12.493 -27.849,27.849 0,15.356 12.493,27.849 27.849,27.849 15.356,0 27.849,-12.493 27.849,-27.849 0,-15.356 -12.493,-27.849 -27.849,-27.849 z m 0,40.698 c -7.085,0 -12.849,-5.764 -12.849,-12.849 0,-7.085 5.764,-12.849 12.849,-12.849 7.085,0 12.849,5.764 12.849,12.849 0,7.085 -5.764,12.849 -12.849,12.849 z"
         inkscape:connector-curvature="0"
         style="stroke:#0000ff;stroke-opacity:0.01923077" />
      <path
         id="path911"
         d="m 47.459,94.581 c 18.205,0 33.017,-14.811 33.017,-33.017 0,-18.206 -14.811,-33.016 -33.017,-33.016 -18.206,0 -33.016,14.811 -33.016,33.016 0,18.205 14.811,33.017 33.016,33.017 z m 0,-51.033 c 9.935,0 18.017,8.082 18.017,18.017 0,9.935 -8.082,18.017 -18.017,18.017 -9.935,0 -18.017,-8.082 -18.017,-18.017 0,-9.935 8.083,-18.017 18.017,-18.017 z"
         inkscape:connector-curvature="0"
         style="stroke:#0000ff;stroke-opacity:0.01923077" />
      <path
         id="path913"
         d="m 375.194,166.305 1.079,-1.545 h 22.598 c 6.559,0 12.469,-4.142 14.708,-10.307 l 13.404,-36.911 c 5.701,-15.703 18.775,-27.526 34.973,-31.625 3.318,-0.839 6.705,0.144 9.058,2.631 2.353,2.488 3.146,5.923 2.122,9.19 l -8.206,26.195 c -1.238,3.953 0.963,8.161 4.915,9.399 3.949,1.238 8.161,-0.962 9.399,-4.915 l 8.206,-26.195 c 2.671,-8.525 0.601,-17.491 -5.539,-23.982 -6.139,-6.491 -14.976,-9.057 -23.636,-6.865 -21.022,5.32 -37.991,20.666 -45.392,41.047 l -13.404,36.911 c -0.093,0.255 -0.337,0.427 -0.608,0.427 h -12.126 l 3.049,-4.368 c 4.354,-6.235 5.869,-14.062 4.157,-21.471 -1.712,-7.41 -6.506,-13.778 -13.153,-17.472 -2.881,-1.601 -5.956,-2.611 -9.075,-3.075 3.406,-9.446 0.853,-20.483 -7.17,-27.345 -10.065,-8.607 -25.071,-7.807 -34.162,1.819 l -4.499,4.763 c -1.534,-4.244 -4.121,-8.058 -7.616,-11.135 -0.396,-0.349 -0.801,-0.68 -1.211,-1.001 0.543,-2.773 0.728,-5.615 0.536,-8.501 -1.104,-16.618 -14.492,-29.708 -31.143,-30.451 -6.688,-0.297 -13.228,1.439 -18.819,4.938 -6.168,-7.79 -15.461,-12.332 -25.59,-12.332 -11.481,0 -21.728,5.846 -27.599,15.154 L 198.8,23.909 c -5.426,-5.33 -12.896,-8.126 -20.48,-7.67 -7.592,0.455 -14.669,4.124 -19.418,10.064 -2.058,2.574 -3.565,5.438 -4.542,8.436 -8.747,-4.929 -20.055,-4.247 -28.157,2.524 -10.16,8.492 -11.868,23.421 -3.889,33.989 l 3.947,5.226 c -4.441,0.807 -8.629,2.726 -12.245,5.66 -11.283,9.159 -13.394,25.516 -4.804,37.239 l 14.331,19.555 c -3.581,0.822 -6.961,2.448 -9.928,4.823 -10.164,8.135 -12.291,22.874 -4.844,33.553 l 7.094,10.171 -22.82,22.549 c -2.946,2.912 -2.975,7.66 -0.063,10.606 1.467,1.485 3.4,2.229 5.335,2.229 1.904,0 3.81,-0.721 5.271,-2.165 L 246.061,79.918 c 3.686,-3.642 9.6,-3.791 13.465,-0.342 2.011,1.794 3.175,4.266 3.279,6.959 0.104,2.692 -0.865,5.246 -2.73,7.19 l -65.842,68.215 c -2.887,2.97 -2.82,7.718 0.15,10.605 1.457,1.417 3.343,2.122 5.227,2.122 1.955,0 3.908,-0.76 5.379,-2.272 l 86.523,-89.006 c 4.548,-4.681 11.95,-4.969 16.851,-0.654 2.513,2.212 3.981,5.272 4.136,8.616 0.153,3.345 -1.027,6.527 -3.326,8.961 l -88.815,94.034 c -2.845,3.011 -2.709,7.758 0.303,10.603 1.449,1.369 3.3,2.047 5.148,2.047 1.991,0 3.979,-0.788 5.453,-2.35 L 341.294,88.148 c 3.596,-3.807 9.529,-4.122 13.508,-0.719 4.051,3.464 4.576,9.619 1.172,13.72 L 254.038,222.94 c -2.672,3.166 -2.271,7.897 0.895,10.569 3.164,2.672 7.897,2.271 10.568,-0.894 l 93.107,-110.323 c 3.667,-4.345 9.937,-5.493 14.902,-2.731 2.987,1.66 5.057,4.408 5.825,7.737 0.77,3.33 0.115,6.707 -1.841,9.508 l -98.559,141.175 c -2.371,3.396 -1.54,8.072 1.856,10.443 1.308,0.913 2.804,1.351 4.286,1.351 2.368,0 4.698,-1.119 6.156,-3.207 l 5.723,-8.198 c 6.445,8.845 16.61,14.752 27.829,15.458 0.817,0.051 1.631,0.077 2.441,0.077 9.55,0 18.548,-3.549 25.558,-10.133 7.5,-7.042 11.801,-16.979 11.801,-27.263 0,-1.32 -0.07,-2.646 -0.209,-3.96 21.191,-4.519 36.347,-23.104 36.347,-45.012 10e-4,-17.878 -10.102,-33.617 -25.529,-41.232 z M 170.62,35.669 c 2.134,-2.669 5.188,-4.252 8.599,-4.457 3.412,-0.205 6.632,1.001 9.069,3.396 l 12.548,12.328 c -8.195,3.054 -15.089,8.789 -19.63,16.128 L 170.835,50.818 C 167.16,46.481 167.069,40.11 170.62,35.669 Z m -43.928,141.112 -5.617,-8.054 c -2.943,-4.221 -2.103,-10.047 1.915,-13.262 2.106,-1.686 4.737,-2.419 7.414,-2.065 2.671,0.354 5.021,1.745 6.614,3.917 l 3.937,5.371 z m 25.049,-24.752 -30.428,-41.519 c -3.858,-5.265 -2.911,-12.612 2.157,-16.726 2.6,-2.111 5.868,-3.05 9.186,-2.645 3.322,0.404 6.262,2.097 8.279,4.768 l 28.889,38.253 z m 28.848,-28.505 -26.34,-34.877 -1.342,-1.776 -18.622,-24.658 c -3.155,-4.179 -2.479,-10.083 1.537,-13.439 4.09,-3.419 10.246,-2.914 13.725,1.126 l 25.993,30.182 c -0.101,1.143 -0.16,2.298 -0.16,3.467 0,12.117 5.562,23.272 14.738,30.559 z m 100.167,-50.591 -4.684,4.818 c -1.402,-3.545 -3.62,-6.743 -6.558,-9.367 -9.76,-8.709 -24.691,-8.331 -33.996,0.863 l -34.602,34.19 C 194.403,99.015 190.38,91.631 190.38,83.547 190.38,70.3 201.144,59.52 214.384,59.493 h 0.082 c 4.957,0 9.232,-3.13 10.638,-7.791 2.235,-7.404 9.202,-12.576 16.944,-12.576 6.255,0 11.924,3.203 15.164,8.569 1.663,2.754 4.431,4.645 7.592,5.188 3.178,0.544 6.439,-0.322 8.946,-2.382 3.377,-2.772 7.663,-4.19 12.039,-3.996 8.858,0.395 16.257,7.625 16.844,16.46 0.041,0.61 0.043,1.215 0.024,1.815 -7.882,-0.684 -15.977,2.06 -21.901,8.153 z M 359.75,238.16 c -3.381,0.555 -6.335,2.39 -8.318,5.168 -1.958,2.741 -2.727,6.076 -2.165,9.393 0.212,1.245 0.319,2.52 0.319,3.788 0,6.25 -2.511,12.048 -7.068,16.329 -4.554,4.276 -10.508,6.417 -16.79,6.02 -8.562,-0.538 -16.098,-6.165 -19.296,-14.057 l 60.031,-85.988 c 11.547,4.693 19.261,15.894 19.261,28.725 0,15.275 -10.923,28.154 -25.974,30.622 z"
         inkscape:connector-curvature="0"
         style="stroke:#0000ff;stroke-opacity:0.01923077" />
      <path
         id="path915"
         d="m 466.826,377.024 c 0,-4.558 -1.14,-9.078 -3.296,-13.073 -1.619,-2.999 -2.045,-6.5 -1.2,-9.861 0.808,-3.211 1.152,-6.533 1.023,-9.873 -0.679,-17.607 -14.977,-32.251 -32.55,-33.34 -9.724,-0.601 -18.95,2.725 -26.013,9.365 -6.967,6.548 -10.962,15.785 -10.962,25.342 0,10.631 4.771,20.537 13.087,27.177 2.692,2.149 4.46,5.154 4.977,8.453 0.112,0.719 0.258,1.454 0.434,2.191 2.797,11.647 13.043,20.357 24.916,21.18 0.666,0.046 1.328,0.069 1.988,0.069 7.02,0 13.638,-2.599 18.812,-7.427 5.583,-5.206 8.784,-12.571 8.784,-20.203 z m -19.017,9.238 c -2.587,2.414 -5.975,3.605 -9.53,3.361 -5.409,-0.375 -10.083,-4.372 -11.366,-9.713 -0.08,-0.336 -0.147,-0.669 -0.2,-1.008 -1.1,-7.022 -4.807,-13.366 -10.438,-17.861 -4.732,-3.778 -7.446,-9.412 -7.446,-15.455 0,-5.515 2.214,-10.633 6.235,-14.413 3.706,-3.484 8.472,-5.362 13.535,-5.362 0.424,0 0.85,0.013 1.276,0.04 9.981,0.618 18.103,8.94 18.489,18.946 0.073,1.912 -0.122,3.808 -0.582,5.634 v 0.001 c -1.763,7.007 -0.857,14.339 2.548,20.646 0.992,1.838 1.495,3.839 1.495,5.947 0.001,3.539 -1.426,6.82 -4.016,9.237 z"
         inkscape:connector-curvature="0"
         style="stroke:#0000ff;stroke-opacity:0.01923077" />
    </g>
    <g
       id="g1008"
       transform="matrix(1.1228805,0,0,1.1228805,43.120145,162.08339)"
       style="opacity:0.065;stroke:#0000ff;stroke-opacity:0.01923077">
      <g
         id="g1006"
         transform="matrix(0.82263209,0,0,0.82263209,16.306024,15.939463)"
         style="stroke:#0000ff;stroke-opacity:0.01923077">
        <path
           id="path978"
           d="m 49.258,26.921 c 5.474,-0.627 9.741,-5.283 9.741,-10.922 0,-6.065 -4.935,-11 -11,-11 -5.639,0 -10.295,4.267 -10.922,9.741 C 35.465,14.266 33.764,14 32,14 c -9.925,0 -18,8.075 -18,18 0,9.925 8.075,18 18,18 9.925,0 18,-8.075 18,-18 -10e-4,-1.765 -0.267,-3.466 -0.742,-5.079 z M 48,7 c 4.962,0 9,4.037 9,9 0,4.771 -3.734,8.675 -8.431,8.971 -1.823,-4.281 -5.258,-7.717 -9.54,-9.54 C 39.324,10.733 43.229,7 48,7 Z M 32,47.999 c -8.823,0 -16,-7.177 -16,-16 0,-8.823 7.177,-16 16,-16 8.822,0 16,7.177 16,16 -10e-4,8.823 -7.178,16 -16,16 z"
           inkscape:connector-curvature="0"
           style="stroke:#0000ff;stroke-opacity:0.01923077" />
        <path
           id="path980"
           d="m 32,18 v 2 c 6.617,0 12,5.383 12,12 h 2 C 45.999,24.28 39.719,18 32,18 Z"
           inkscape:connector-curvature="0"
           style="stroke:#0000ff;stroke-opacity:0.01923077" />
        <path
           id="path982"
           d="m 54,45 c -4.963,0 -9,4.037 -9,9 0,4.962 4.037,9 9,9 4.962,0 9,-4.037 9,-9 -10e-4,-4.963 -4.038,-9 -9,-9 z m 0,15.999 c -3.86,0 -7,-3.14 -7,-7 0,-3.86 3.14,-7 7,-7 3.859,0 7,3.14 7,7 -10e-4,3.86 -3.141,7 -7,7 z"
           inkscape:connector-curvature="0"
           style="stroke:#0000ff;stroke-opacity:0.01923077" />
        <path
           id="path984"
           d="m 54,49 v 2 c 1.654,0 3,1.346 3,3 h 2 c -10e-4,-2.758 -2.244,-5 -5,-5 z"
           inkscape:connector-curvature="0"
           style="stroke:#0000ff;stroke-opacity:0.01923077" />
        <path
           id="path986"
           d="m 16.999,9.999 h 2 c 0,-2.757 -2.243,-5 -5,-5 v 2 c 1.654,0.001 3,1.346 3,3 z"
           inkscape:connector-curvature="0"
           style="stroke:#0000ff;stroke-opacity:0.01923077" />
        <path
           id="path988"
           d="m 14,18.999 c 4.962,0 9,-4.037 9,-9 0,-4.963 -4.037,-9 -9,-9 -4.963,0 -9,4.037 -9,9 0,4.963 4.037,9 9,9 z M 14,3 c 3.859,0 7,3.14 7,7 0,3.859 -3.14,7 -7,7 -3.86,0 -7,-3.14 -7,-7 0,-3.86 3.14,-7 7,-7 z"
           inkscape:connector-curvature="0"
           style="stroke:#0000ff;stroke-opacity:0.01923077" />
        <path
           id="path990"
           d="m 52.999,15.999 h 2 c 0,-3.859 -3.14,-7 -7,-7 v 2 c 2.757,10e-4 5,2.243 5,5 z"
           inkscape:connector-curvature="0"
           style="stroke:#0000ff;stroke-opacity:0.01923077" />
        <path
           id="path992"
           d="m 15,53 c -2.757,0 -5,2.243 -5,5 0,2.757 2.243,5 5,5 2.757,0 5,-2.243 5,-5 -0.001,-2.758 -2.244,-5 -5,-5 z m 0,7.999 c -1.654,0 -3,-1.346 -3,-3 0,-1.654 1.346,-3 3,-3 1.654,0 3,1.346 3,3 -0.001,1.654 -1.347,3 -3,3 z"
           inkscape:connector-curvature="0"
           style="stroke:#0000ff;stroke-opacity:0.01923077" />
        <path
           id="path994"
           d="m 6,35 c -2.757,0 -5,2.243 -5,5 0,2.757 2.243,5 5,5 2.757,0 5,-2.243 5,-5 -10e-4,-2.758 -2.244,-5 -5,-5 z m 0,7.999 c -1.654,0 -3,-1.346 -3,-3 0,-1.654 1.345,-3 3,-3 1.654,0 3,1.346 3,3 -10e-4,1.654 -1.347,3 -3,3 z"
           inkscape:connector-curvature="0"
           style="stroke:#0000ff;stroke-opacity:0.01923077" />
        <path
           id="path996"
           d="m 9,32.999 c 2.757,0 5,-2.243 5,-5 0,-2.757 -2.243,-5 -5,-5 -2.757,0 -5,2.243 -5,5 0,2.757 2.242,5 5,5 z M 9,25 c 1.654,0 3,1.346 3,3 0,1.654 -1.346,3 -3,3 -1.654,0 -3,-1.346 -3,-3 0,-1.655 1.345,-3 3,-3 z"
           inkscape:connector-curvature="0"
           style="stroke:#0000ff;stroke-opacity:0.01923077" />
        <path
           id="path998"
           d="m 56,31 c -2.206,0 -4,1.794 -4,4 0,2.206 1.794,4 4,4 2.206,0 4,-1.794 4,-4 -10e-4,-2.207 -1.795,-4 -4,-4 z m 0,5.999 c -1.103,0 -2,-0.897 -2,-2 0,-1.103 0.897,-2 2,-2 1.103,0 2,0.897 2,2 -10e-4,1.103 -0.898,2 -2,2 z"
           inkscape:connector-curvature="0"
           style="stroke:#0000ff;stroke-opacity:0.01923077" />
        <path
           id="path1000"
           d="m 35,51 c -2.206,0 -4,1.794 -4,4 0,2.206 1.794,4 4,4 2.206,0 4,-1.794 4,-4 -10e-4,-2.207 -1.795,-4 -4,-4 z m 0,5.999 c -1.103,0 -2,-0.897 -2,-2 0,-1.103 0.897,-2 2,-2 1.103,0 2,0.897 2,2 -10e-4,1.103 -0.898,2 -2,2 z"
           inkscape:connector-curvature="0"
           style="stroke:#0000ff;stroke-opacity:0.01923077" />
        <path
           id="path1002"
           d="m 32,10.999 c 1.654,0 3,-1.346 3,-3 0,-1.654 -1.346,-3 -3,-3 -1.654,0 -3,1.346 -3,3 0,1.654 1.345,3 3,3 z M 32,7 c 0.551,0 1,0.448 1,1 0,0.551 -0.448,1 -1,1 -0.552,0 -1,-0.448 -1,-1 0,-0.552 0.448,-1 1,-1 z"
           inkscape:connector-curvature="0"
           style="stroke:#0000ff;stroke-opacity:0.01923077" />
        <path
           id="path1004"
           d="m 11,49 c 0,1.654 1.346,3 3,3 1.654,0 3,-1.346 3,-3 0,-1.654 -1.346,-3 -3,-3 -1.655,0 -3,1.345 -3,3 z m 3,-1 c 0.551,0 1,0.448 1,1 0,0.551 -0.448,1 -1,1 -0.552,0 -1,-0.448 -1,-1 0,-0.552 0.448,-1 1,-1 z"
           inkscape:connector-curvature="0"
           style="stroke:#0000ff;stroke-opacity:0.01923077" />
      </g>
    </g>
  </g>
</svg>
